<?xml version="1.0" encoding="UTF-8" standalone="no"?>
<svg
   width="2133.333"
   height="2133.333"
   viewBox="0 0 1600 1600"
   version="1.1"
   id="svg2"
   sodipodi:docname="ComputerEyes-Green-Transparent.svg"
   inkscape:version="1.4.2 (ebf0e940d0, 2025-05-08)"
   xmlns:inkscape="http://www.inkscape.org/namespaces/inkscape"
   xmlns:sodipodi="http://sodipodi.sourceforge.net/DTD/sodipodi-0.dtd"
   xmlns="http://www.w3.org/2000/svg"
   xmlns:svg="http://www.w3.org/2000/svg">
  <defs
     id="defs2" />
  <sodipodi:namedview
     id="namedview2"
     pagecolor="#ffffff"
     bordercolor="#000000"
     borderopacity="0.25"
     inkscape:showpageshadow="2"
     inkscape:pageopacity="0.0"
     inkscape:pagecheckerboard="0"
     inkscape:deskcolor="#d1d1d1"
     inkscape:zoom="0.84046888"
     inkscape:cx="1067.2614"
     inkscape:cy="1066.6665"
     inkscape:window-width="3840"
     inkscape:window-height="2054"
     inkscape:window-x="0"
     inkscape:window-y="0"
     inkscape:window-maximized="1"
     inkscape:current-layer="svg2" />
  <path
     d="M77.1 160.5c-36.6 8-63.7 33.5-74.3 70l-2.3 8L.2 710c-.2 414.2 0 472.6 1.3 480.1 6.4 37.3 33.2 66.3 71.4 77.2l7.6 2.2 283.8.3 283.7.2-.5 2.3c-.3 1.2-4.3 26.7-9 56.5-4.9 31.2-9.4 56.6-10.5 59.6-6.7 17.8-20 30.7-38 36.9-8.3 2.9-9 3-35 3.6-24.8.6-26.8.8-30.7 2.9-9.4 4.9-15.4 13-17.3 23.3-1.1 5.9 0 14.1 2.7 19.3 2.5 4.8 9.5 11.6 14.8 14.4l5 2.7 261.5.3c291.4.3 266.6.8 276.6-6.7 3.5-2.6 5.9-5.6 8.4-10.5 3.1-6.1 3.5-7.8 3.5-14.5-.1-9.2-3.3-16.9-9.5-22.5-8.6-7.7-9.6-8-38-8.7-28.3-.8-32.8-1.6-44-7.5-13.3-6.9-23.4-18.6-28.5-32.8-1.7-5-5-23.1-11-61.3-4.7-29.7-8.5-54.8-8.5-55.7 0-1.5 24-1.6 278.4-1.6 194.3 0 280.8-.3 286.2-1.1 37.4-5.2 67.4-31.2 79.1-68.6l2.8-8.8v-953l-2.3-8.3c-9.1-33.3-34.2-58.6-67.8-68.4l-7.9-2.3-712.5-.2c-604.5-.1-713.5.1-718.9 1.2m1429.1 65.3c7.5 3.7 11 7.2 14.7 15.2l2.6 5.5.3 384.8.2 384.7-730.2-.2-730.3-.3V632c0-368.3.1-383.7 1.8-388.7 3.3-9.4 12.7-17.9 22.4-20.2 2.2-.5 300-.8 707.8-.8l704 .2zm17.6 904.9c-.3 50.5-.4 51.9-2.4 56.4-3 6.4-8.8 12.5-14.8 15.7l-5.1 2.7H85.5l-5.3-2.9c-6.5-3.6-10.7-8.2-14.1-15.6l-2.6-5.5-.3-49.8c-.2-27.4-.1-50.5.2-51.3.5-1.2 102.1-1.4 730.6-1.4h730.1zm-649.4 142c.3 1.6 4.6 28.2 9.6 59.3s10.1 60.9 11.4 66.2c1.4 5.4 4.5 14.1 7 19.4s4.6 10.1 4.6 10.5c0 .5-50.2.9-113.5.9-62.4 0-113.5-.2-113.5-.5s1.3-3.2 3-6.4c4-8.1 6.7-15.2 9-24.1 1.5-6 21-123.8 21-127.1 0-.5 31.8-.9 80.4-.9h80.4z"
     id="path1"
     style="fill:#00ff00" />
  <path
     d="M589 409c0 .6-3.2 1-7.5 1-6 0-7.5.3-7.5 1.5s-1.3 1.5-5.5 1.5-5.5.3-5.5 1.5q0 1.5-3 1.5t-3 1.5-3 1.5c-1.6 0-3 .4-3 .9s-1.3 1.2-3 1.6c-1.6.4-3 1.1-3 1.6s-1.1 1.1-2.5 1.5c-1.4.3-2.5 1-2.5 1.5s-.6.9-1.3.9-2 .9-3 2c-.9 1.1-2.4 2-3.2 2s-1.5.4-1.5 1c0 .5-.7 1-1.5 1s-1.5.7-1.5 1.5-.7 1.5-1.5 1.5-1.5.7-1.5 1.5-.7 1.5-1.5 1.5-1.5.7-1.5 1.5-.7 1.5-1.5 1.5-1.5.5-1.5 1.1c0 .7-1.1 2.2-2.5 3.5s-2.5 2.8-2.5 3.4c0 .5-.6 1-1.4 1s-1.7 1.1-2 2.5c-.4 1.4-1.1 2.5-1.6 2.5-.6 0-1 .7-1 1.5s-.7 1.5-1.5 1.5q-1.5 0-1.5 3t-1.5 3-1.5 3-1.5 3c-.9 0-1.5 1-1.5 2.6 0 1.4-.7 3.2-1.5 4-.8.9-1.5 2.8-1.5 4.4s-.5 3-1.1 3.2c-.5.2-1.3 2.2-1.6 4.6-.3 2.3-.9 4.2-1.3 4.2-.5 0-1.1 5.2-1.5 11.5s-1.1 11.5-1.6 11.5-.9 1.3-.9 3c0 1.6.4 3 .9 3s1.2 4.5 1.6 10c.3 5.5 1 10 1.5 10 .4 0 1 2.3 1.2 5.1.3 2.8 1 5.4 1.5 5.8.5.3 1.3 2.4 1.6 4.6.4 2.2 1.1 4.1 1.7 4.3.5.2 1 1.5 1 2.8 0 1.4.7 2.7 1.5 3 .8.4 1.5 1.7 1.5 3 0 1.5.6 2.4 1.5 2.4.8 0 1.5.9 1.5 2s.4 2 .9 2 1.3 1 1.6 2.2c.4 1.1 1.8 3.1 3 4.3 1.3 1.1 2.7 3.3 3 4.8.4 1.5 1.3 2.7 2.1 2.7s1.4.7 1.4 1.5.7 1.5 1.5 1.5 1.5.5 1.5 1.1c0 1.4 2.5 3.9 3.9 3.9.6 0 1.1.7 1.1 1.5s.7 1.5 1.5 1.5 1.5.6 1.5 1.4 1.4 1.7 3 2.1c1.7.4 3 1.1 3 1.6s.7.9 1.5.9 1.5.6 1.5 1.4 1.1 1.7 2.5 2c1.4.4 2.5 1.1 2.5 1.6 0 .6.9 1 2 1s2 .7 2 1.5c0 .9.9 1.5 2.4 1.5 1.3 0 2.6.7 3 1.5.3.8 1.6 1.5 3 1.5 1.3 0 2.6.5 2.8 1 .2.6 2.1 1.3 4.3 1.7 2.2.3 4.3 1 4.6 1.6.4.5 2.8 1.2 5.5 1.5 2.7.2 5.2 1 5.6 1.6 1 1.5 47.6 1.5 48.6 0 .4-.6 2.5-1.4 4.6-1.7 2.2-.4 4.2-1 4.5-1.5s2.4-1.2 4.6-1.5c2.2-.4 4.1-1.1 4.3-1.7.2-.5 1.5-1 2.8-1 1.5 0 2.4-.6 2.4-1.5q0-1.5 3-1.5t3-1.5 3-1.5 3-1.5c0-.8.7-1.5 1.5-1.5s1.5-.4 1.5-1c0-.5 1.1-1.2 2.5-1.6 1.4-.3 2.5-1.2 2.5-2s.5-1.4 1-1.4c.6 0 2.1-1.1 3.4-2.5s2.8-2.5 3.5-2.5c.6 0 1.1-.7 1.1-1.5s.7-1.5 1.5-1.5 1.5-.7 1.5-1.5.7-1.5 1.5-1.5 1.5-.7 1.5-1.5.7-1.5 1.5-1.5 1.5-.7 1.5-1.5.5-1.5 1-1.5c.6 0 1-.7 1-1.5s.9-2.3 2-3.2c1.1-1 2-2.3 2-3s.4-1.3.9-1.3 1.2-1.1 1.5-2.5c.4-1.4 1-2.5 1.5-2.5s1.2-1.4 1.6-3c.4-1.7 1-3 1.5-3s1.1-1.4 1.5-3c.4-1.7 1.1-3 1.6-3s.9-1.4.9-3q0-3 1.5-3c1.2 0 1.5-1.3 1.5-5.5s.3-5.5 1.5-5.5 1.5-1.4 1.5-6.9c0-4.3.4-7.1 1.1-7.3 1.6-.5 1.7-24.7.2-25.6-.6-.4-1.2-3.8-1.5-7.6-.2-4.2-.9-7.1-1.6-7.4-.7-.2-1.2-2.3-1.2-4.8 0-3.2-.4-4.4-1.5-4.4s-1.5-1.1-1.5-4-.4-4-1.5-4q-1.5 0-1.5-3t-1.5-3c-.9 0-1.5-.9-1.5-2.4 0-1.3-.7-2.6-1.5-3-.8-.3-1.5-1.2-1.5-2.1 0-.8-.4-1.5-.9-1.5s-1.3-1-1.6-2.2c-.4-1.1-1.8-3.1-3.1-4.3s-2.4-2.7-2.4-3.4c0-.6-.7-1.1-1.5-1.1s-1.5-.7-1.5-1.5-.7-1.5-1.5-1.5-1.5-.7-1.5-1.5-.7-1.5-1.5-1.5-1.5-.7-1.5-1.5-.7-1.5-1.5-1.5-1.5-.4-1.5-1c0-1.3-3.2-5-4.4-5-.5 0-1.9-1.1-3.1-2.4s-3.2-2.7-4.3-3.1c-1.2-.3-2.2-1-2.2-1.5s-1.3-1.1-3-1.5c-1.6-.4-3-1.1-3-1.6s-.7-.9-1.5-.9-1.5-.7-1.5-1.5c0-1-1-1.5-2.9-1.5-1.6 0-3.6-.7-4.5-1.5-.8-.8-2.6-1.5-4-1.5-1.6 0-2.6-.6-2.6-1.5 0-1.1-1.2-1.5-4.4-1.5-2.6 0-4.6-.5-4.8-1.2-.3-.7-3.2-1.4-7.6-1.6-4-.2-7.2-.8-7.2-1.3s-5.6-.9-12.5-.9c-7.7 0-12.5.4-12.5 1M987 409c0 .6-3.2 1-7.5 1-6 0-7.5.3-7.5 1.5 0 1.1-1.2 1.5-4.4 1.5-2.6 0-5.1.6-6 1.5-.8.8-2.6 1.5-4 1.5-1.6 0-2.6.6-2.6 1.5s-1 1.5-2.6 1.5c-1.4 0-3.2.7-4 1.5-.9.8-2.4 1.5-3.5 1.5-1 0-1.9.4-1.9 1 0 .5-1.1 1.2-2.5 1.6-1.4.3-2.5 1-2.5 1.5s-.7.9-1.5.9-1.5.6-1.5 1.4-1.3 1.7-3 2.1c-1.6.4-3 1.3-3 2.1s-.7 1.4-1.5 1.4-1.5.4-1.5 1c0 .5-.7 1-1.5 1s-1.5.7-1.5 1.5-.7 1.5-1.5 1.5-1.5.5-1.5 1.1-1.8 2.8-3.9 4.9-4.2 4.8-4.6 5.9c-.3 1.2-1.1 2.1-1.6 2.1s-.9.7-.9 1.5-.7 1.5-1.5 1.5-1.5.9-1.5 2-.4 2-1 2c-.5 0-1.2 1.1-1.6 2.5-.3 1.4-1.2 2.5-2 2.5s-1.4 1-1.4 2.6c0 1.4-.7 3.2-1.5 4-.8.9-1.5 2.4-1.5 3.5 0 1-.4 1.9-1 1.9-.5 0-1.3 1.8-1.6 4-.4 2.2-1 4-1.4 4s-1.1 2.4-1.4 5.2c-.4 2.9-1.3 5.6-1.9 6-1.7 1-1.7 45.6-.1 46.6.6.4 1.5 3.1 1.9 5.9.4 2.9 1 5.3 1.5 5.3.4 0 1 1.9 1.3 4.1.3 2.3 1 4.5 1.5 4.8.6.3 1.4 1.9 1.7 3.4.4 1.5 1.1 2.7 1.5 2.7s1.1 1.1 1.4 2.5c.4 1.4 1.1 2.5 1.6 2.5.6 0 1 .9 1 2s.4 2 1 2c.5 0 1.2 1.1 1.6 2.5.3 1.4 1.2 2.5 2 2.5s1.4.7 1.4 1.5.5 1.5 1 1.5c.6 0 1 .7 1 1.5s.6 1.5 1.4 1.5 1.7 1.3 2.1 3c.4 1.6 1.3 3 2.1 3s1.4.7 1.4 1.5.5 1.5 1.1 1.5 2.4 1.3 4.1 3c1.6 1.6 3.6 3 4.4 3s1.4.7 1.4 1.5.7 1.5 1.5 1.5 1.5.4 1.5 1c0 .5.7 1 1.5 1s1.5.6 1.5 1.4 1.1 1.7 2.5 2c1.4.4 2.5 1.1 2.5 1.6 0 .6.9 1 2 1s2 .7 2 1.5c0 .9.9 1.5 2.4 1.5 1.3 0 2.6.7 3 1.5.3.8 1.6 1.5 3 1.5 1.3 0 2.6.5 2.8 1 .2.6 2.1 1.3 4.3 1.7 2.2.3 4.3 1 4.6 1.5s2.5 1.2 4.8 1.5c2.2.3 4.1.9 4.1 1.3s5.1 1.1 11.3 1.5c6.4.4 11.5 1.2 12 1.9.5.8.9.8 1.5 0 .4-.6 6-1.4 13.2-1.8 6.9-.4 12.7-1.1 13-1.6.3-.4 2.9-1.1 5.8-1.5 2.8-.4 5.2-1 5.2-1.5 0-.4 1.6-1.1 3.5-1.4 1.9-.4 3.5-1.1 3.5-1.6 0-.6 1.1-1 2.5-1s2.8-.7 3.1-1.5c.4-.8 1.7-1.5 3-1.5 1.5 0 2.4-.6 2.4-1.5q0-1.5 3-1.5t3-1.5c0-.8.7-1.5 1.5-1.5s1.5-.4 1.5-.9.9-1.3 2.1-1.6c1.1-.4 3.8-2.5 5.9-4.6s4.3-3.9 4.9-3.9 1.1-.7 1.1-1.5.7-1.5 1.5-1.5 1.5-.7 1.5-1.5.7-1.5 1.5-1.5 1.5-.7 1.5-1.5.7-1.5 1.5-1.5 1.5-.5 1.5-1.1c0-.7 1.1-2.2 2.4-3.4s2.7-3.2 3.1-4.5 1.4-3 2.1-3.8c.8-.7 1.4-2 1.4-2.8s.5-1.4 1-1.4c.6 0 1-.7 1-1.5 0-.9.7-1.8 1.5-2.1.8-.4 1.5-1.7 1.5-3 0-1.5.6-2.4 1.5-2.4 1.1 0 1.5-1.2 1.5-4.5s.4-4.5 1.5-4.5 1.5-1.1 1.5-3.9c0-2.5.5-4.1 1.5-4.5 1.1-.4 1.5-2.2 1.5-7.5 0-4.7.4-7.1 1.3-7.4s1.2-4 1.2-14.2-.3-13.9-1.2-14.3c-.9-.2-1.3-2.6-1.3-7.3 0-5.5-.3-6.9-1.5-6.9-1.1 0-1.5-1.2-1.5-4.5s-.4-4.5-1.5-4.5-1.5-1.1-1.5-4-.4-4-1.5-4q-1.5 0-1.5-3t-1.5-3-1.5-3-1.5-3c-.8 0-1.5-.7-1.5-1.5s-.4-1.5-.9-1.5-1.2-1.1-1.5-2.5c-.4-1.4-1.1-2.5-1.6-2.5-.6 0-1-.7-1-1.5s-.7-1.5-1.5-1.5-1.5-.5-1.5-1.1c0-1.1-15.4-16.9-16.5-16.9-.4 0-2-1.4-3.7-3-1.6-1.7-3.6-3-4.4-3s-1.4-.5-1.4-1c0-.6-.7-1-1.5-1-.9 0-1.8-.7-2.1-1.5-.4-.8-1.7-1.5-3-1.5-1.5 0-2.4-.6-2.4-1.5q0-1.5-3-1.5t-3-1.5c0-1.1-1.1-1.5-4-1.5s-4-.4-4-1.5-1.2-1.5-4.4-1.5c-2.6 0-4.6-.5-4.8-1.2-.3-.8-3.3-1.4-8.6-1.6-4.5-.2-8.2-.8-8.2-1.3s-5.2-.9-11.5-.9c-7 0-11.5.4-11.5 1M784.9 1109.3c-23.1 6.6-33 33.1-19.8 53.1 11.6 17.5 37.6 20.1 52.4 5.2 7.2-7.2 9.9-13.2 10.3-23.1.5-10.4-2-17.4-8.8-24.8-8.6-9.4-22.6-13.6-34.1-10.4"
     id="path2"
     style="fill:#00ff00" />
</svg>
