<?xml version="1.0" standalone="no"?>
<!DOCTYPE svg PUBLIC "-//W3C//DTD SVG 20010904//EN"
 "http://www.w3.org/TR/2001/REC-SVG-20010904/DTD/svg10.dtd">
<svg version="1.0" xmlns="http://www.w3.org/2000/svg"
 width="1600.000000pt" height="1600.000000pt" viewBox="0 0 1600.000000 1600.000000"
 preserveAspectRatio="xMidYMid meet">
<metadata>
Created by potrace 1.11, written by Peter Selinger 2001-2013
</metadata>
<g transform="translate(0.000000,1600.000000) scale(0.100000,-0.100000)"
fill="#000000" stroke="none">
<path d="M771 14395 c-366 -80 -637 -335 -743 -700 l-23 -80 -3 -4715 c-2
-4142 0 -4726 13 -4801 64 -373 332 -663 714 -772 l76 -22 2838 -3 2837 -2 -5
-23 c-3 -12 -43 -267 -90 -565 -49 -312 -94 -566 -105 -596 -67 -178 -200
-307 -380 -369 -83 -29 -90 -30 -350 -36 -248 -6 -268 -8 -307 -29 -94 -49
-154 -130 -173 -233 -11 -59 0 -141 27 -193 25 -48 95 -116 148 -144 l50 -27
2615 -3 c2914 -3 2666 -8 2766 67 35 26 59 56 84 105 31 61 35 78 35 145 -1
92 -33 169 -95 225 -86 77 -96 80 -380 87 -283 8 -328 16 -440 75 -133 69
-234 186 -285 328 -17 50 -50 231 -110 613 -47 297 -85 548 -85 557 0 15 240
16 2784 16 1943 0 2808 3 2862 11 374 52 674 312 791 686 l28 88 0 4765 0
4765 -23 83 c-91 333 -342 586 -678 684 l-79 23 -7125 2 c-6045 1 -7135 -1
-7189 -12z m14291 -653 c75 -37 110 -72 147 -152 l26 -55 3 -3848 2 -3847
-7302 2 -7303 3 0 3835 c0 3683 1 3837 18 3887 33 94 127 179 224 202 22 5
3000 8 7078 8 l7040 -2 67 -33z m176 -9049 c-3 -505 -4 -519 -24 -564 -30 -64
-88 -125 -148 -157 l-51 -27 -7080 0 -7080 0 -53 29 c-65 36 -107 82 -141 156
l-26 55 -3 498 c-2 274 -1 505 2 513 5 12 1021 14 7306 14 l7301 0 -3 -517z
m-6494 -1420 c3 -16 46 -282 96 -593 50 -311 101 -609 114 -662 14 -54 45
-141 70 -194 25 -53 46 -101 46 -105 0 -5 -502 -9 -1135 -9 -624 0 -1135 2
-1135 5 0 3 13 32 30 64 40 81 67 152 90 241 15 60 210 1238 210 1271 0 5 318
9 804 9 l804 0 6 -27z"/>
<path d="M5890 11910 c0 -6 -32 -10 -75 -10 -60 0 -75 -3 -75 -15 0 -12 -13
-15 -55 -15 -42 0 -55 -3 -55 -15 0 -10 -10 -15 -30 -15 -20 0 -30 -5 -30 -15
0 -10 -10 -15 -30 -15 -16 0 -30 -4 -30 -9 0 -5 -13 -12 -30 -16 -16 -4 -30
-11 -30 -16 0 -5 -11 -11 -25 -15 -14 -3 -25 -10 -25 -15 0 -5 -6 -9 -13 -9
-7 0 -20 -9 -30 -20 -9 -11 -24 -20 -32 -20 -8 0 -15 -4 -15 -10 0 -5 -7 -10
-15 -10 -8 0 -15 -7 -15 -15 0 -8 -7 -15 -15 -15 -8 0 -15 -7 -15 -15 0 -8 -7
-15 -15 -15 -8 0 -15 -7 -15 -15 0 -8 -7 -15 -15 -15 -8 0 -15 -5 -15 -11 0
-7 -11 -22 -25 -35 -14 -13 -25 -28 -25 -34 0 -5 -6 -10 -14 -10 -8 0 -17 -11
-20 -25 -4 -14 -11 -25 -16 -25 -6 0 -10 -7 -10 -15 0 -8 -7 -15 -15 -15 -10
0 -15 -10 -15 -30 0 -20 -5 -30 -15 -30 -10 0 -15 -10 -15 -30 0 -20 -5 -30
-15 -30 -9 0 -15 -10 -15 -26 0 -14 -7 -32 -15 -40 -8 -9 -15 -28 -15 -44 0
-16 -5 -30 -11 -32 -5 -2 -13 -22 -16 -46 -3 -23 -9 -42 -13 -42 -5 0 -11 -52
-15 -115 -4 -63 -11 -115 -16 -115 -5 0 -9 -13 -9 -30 0 -16 4 -30 9 -30 5 0
12 -45 16 -100 3 -55 10 -100 15 -100 4 0 10 -23 12 -51 3 -28 10 -54 15 -58
5 -3 13 -24 16 -46 4 -22 11 -41 17 -43 5 -2 10 -15 10 -28 0 -14 7 -27 15
-30 8 -4 15 -17 15 -30 0 -15 6 -24 15 -24 8 0 15 -9 15 -20 0 -11 4 -20 9
-20 5 0 13 -10 16 -22 4 -11 18 -31 30 -43 13 -11 27 -33 30 -48 4 -15 13 -27
21 -27 8 0 14 -7 14 -15 0 -8 7 -15 15 -15 8 0 15 -5 15 -11 0 -14 25 -39 39
-39 6 0 11 -7 11 -15 0 -8 7 -15 15 -15 8 0 15 -6 15 -14 0 -8 14 -17 30 -21
17 -4 30 -11 30 -16 0 -5 7 -9 15 -9 8 0 15 -6 15 -14 0 -8 11 -17 25 -20 14
-4 25 -11 25 -16 0 -6 9 -10 20 -10 11 0 20 -7 20 -15 0 -9 9 -15 24 -15 13 0
26 -7 30 -15 3 -8 16 -15 30 -15 13 0 26 -5 28 -10 2 -6 21 -13 43 -17 22 -3
43 -10 46 -16 4 -5 28 -12 55 -15 27 -2 52 -10 56 -16 10 -15 476 -15 486 0 4
6 25 14 46 17 22 4 42 10 45 15 3 5 24 12 46 15 22 4 41 11 43 17 2 5 15 10
28 10 15 0 24 6 24 15 0 10 10 15 30 15 20 0 30 5 30 15 0 10 10 15 30 15 20
0 30 5 30 15 0 8 7 15 15 15 8 0 15 4 15 10 0 5 11 12 25 16 14 3 25 12 25 20
0 8 5 14 10 14 6 0 21 11 34 25 13 14 28 25 35 25 6 0 11 7 11 15 0 8 7 15 15
15 8 0 15 7 15 15 0 8 7 15 15 15 8 0 15 7 15 15 0 8 7 15 15 15 8 0 15 7 15
15 0 8 5 15 10 15 6 0 10 7 10 15 0 8 9 23 20 32 11 10 20 23 20 30 0 7 4 13
9 13 5 0 12 11 15 25 4 14 10 25 15 25 5 0 12 14 16 30 4 17 10 30 15 30 5 0
11 14 15 30 4 17 11 30 16 30 5 0 9 14 9 30 0 20 5 30 15 30 12 0 15 13 15 55
0 42 3 55 15 55 12 0 15 14 15 69 0 43 4 71 11 73 16 5 17 247 2 256 -6 4 -12
38 -15 76 -2 42 -9 71 -16 74 -7 2 -12 23 -12 48 0 32 -4 44 -15 44 -11 0 -15
11 -15 40 0 29 -4 40 -15 40 -10 0 -15 10 -15 30 0 20 -5 30 -15 30 -9 0 -15
9 -15 24 0 13 -7 26 -15 30 -8 3 -15 12 -15 21 0 8 -4 15 -9 15 -5 0 -13 10
-16 22 -4 11 -18 31 -31 43 -13 12 -24 27 -24 34 0 6 -7 11 -15 11 -8 0 -15 7
-15 15 0 8 -7 15 -15 15 -8 0 -15 7 -15 15 0 8 -7 15 -15 15 -8 0 -15 7 -15
15 0 8 -7 15 -15 15 -8 0 -15 4 -15 10 0 13 -32 50 -44 50 -5 0 -19 11 -31 24
-12 13 -32 27 -43 31 -12 3 -22 10 -22 15 0 5 -13 11 -30 15 -16 4 -30 11 -30
16 0 5 -7 9 -15 9 -8 0 -15 7 -15 15 0 10 -10 15 -29 15 -16 0 -36 7 -45 15
-8 8 -26 15 -40 15 -16 0 -26 6 -26 15 0 11 -12 15 -44 15 -26 0 -46 5 -48 12
-3 7 -32 14 -76 16 -40 2 -72 8 -72 13 0 5 -56 9 -125 9 -77 0 -125 -4 -125
-10z"/>
<path d="M9870 11910 c0 -6 -32 -10 -75 -10 -60 0 -75 -3 -75 -15 0 -11 -12
-15 -44 -15 -26 0 -51 -6 -60 -15 -8 -8 -26 -15 -40 -15 -16 0 -26 -6 -26 -15
0 -9 -10 -15 -26 -15 -14 0 -32 -7 -40 -15 -9 -8 -24 -15 -35 -15 -10 0 -19
-4 -19 -10 0 -5 -11 -12 -25 -16 -14 -3 -25 -10 -25 -15 0 -5 -7 -9 -15 -9 -8
0 -15 -6 -15 -14 0 -8 -13 -17 -30 -21 -16 -4 -30 -13 -30 -21 0 -8 -7 -14
-15 -14 -8 0 -15 -4 -15 -10 0 -5 -7 -10 -15 -10 -8 0 -15 -7 -15 -15 0 -8 -7
-15 -15 -15 -8 0 -15 -5 -15 -11 0 -6 -18 -28 -39 -49 -21 -21 -42 -48 -46
-59 -3 -12 -11 -21 -16 -21 -5 0 -9 -7 -9 -15 0 -8 -7 -15 -15 -15 -8 0 -15
-9 -15 -20 0 -11 -4 -20 -10 -20 -5 0 -12 -11 -16 -25 -3 -14 -12 -25 -20 -25
-8 0 -14 -10 -14 -26 0 -14 -7 -32 -15 -40 -8 -9 -15 -24 -15 -35 0 -10 -4
-19 -10 -19 -5 0 -13 -18 -16 -40 -4 -22 -10 -40 -14 -40 -4 0 -11 -24 -14
-52 -4 -29 -13 -56 -19 -60 -17 -10 -17 -456 -1 -466 6 -4 15 -31 19 -59 4
-29 10 -53 15 -53 4 0 10 -19 13 -41 3 -23 10 -45 15 -48 6 -3 14 -19 17 -34
4 -15 11 -27 15 -27 4 0 11 -11 14 -25 4 -14 11 -25 16 -25 6 0 10 -9 10 -20
0 -11 4 -20 10 -20 5 0 12 -11 16 -25 3 -14 12 -25 20 -25 8 0 14 -7 14 -15 0
-8 5 -15 10 -15 6 0 10 -7 10 -15 0 -8 6 -15 14 -15 8 0 17 -13 21 -30 4 -16
13 -30 21 -30 8 0 14 -7 14 -15 0 -8 5 -15 11 -15 6 0 24 -13 41 -30 16 -16
36 -30 44 -30 8 0 14 -7 14 -15 0 -8 7 -15 15 -15 8 0 15 -4 15 -10 0 -5 7
-10 15 -10 8 0 15 -6 15 -14 0 -8 11 -17 25 -20 14 -4 25 -11 25 -16 0 -6 9
-10 20 -10 11 0 20 -7 20 -15 0 -9 9 -15 24 -15 13 0 26 -7 30 -15 3 -8 16
-15 30 -15 13 0 26 -5 28 -10 2 -6 21 -13 43 -17 22 -3 43 -10 46 -15 3 -5 25
-12 48 -15 22 -3 41 -9 41 -13 0 -4 51 -11 113 -15 64 -4 115 -12 120 -19 5
-8 9 -8 15 0 4 6 60 14 132 18 69 4 127 11 130 16 3 4 29 11 58 15 28 4 52 10
52 15 0 4 16 11 35 14 19 4 35 11 35 16 0 6 11 10 25 10 14 0 28 7 31 15 4 8
17 15 30 15 15 0 24 6 24 15 0 10 10 15 30 15 20 0 30 5 30 15 0 8 7 15 15 15
8 0 15 4 15 9 0 5 9 13 21 16 11 4 38 25 59 46 21 21 43 39 49 39 6 0 11 7 11
15 0 8 7 15 15 15 8 0 15 7 15 15 0 8 7 15 15 15 8 0 15 7 15 15 0 8 7 15 15
15 8 0 15 5 15 11 0 7 11 22 24 34 13 12 27 32 31 45 4 13 14 30 21 38 8 7 14
20 14 28 0 8 5 14 10 14 6 0 10 7 10 15 0 9 7 18 15 21 8 4 15 17 15 30 0 15
6 24 15 24 11 0 15 12 15 45 0 33 4 45 15 45 11 0 15 11 15 39 0 25 5 41 15
45 11 4 15 22 15 75 0 47 4 71 13 74 9 3 12 40 12 142 0 102 -3 139 -12 143
-9 2 -13 26 -13 73 0 55 -3 69 -15 69 -11 0 -15 12 -15 45 0 33 -4 45 -15 45
-11 0 -15 11 -15 40 0 29 -4 40 -15 40 -10 0 -15 10 -15 30 0 20 -5 30 -15 30
-10 0 -15 10 -15 30 0 20 -5 30 -15 30 -8 0 -15 7 -15 15 0 8 -4 15 -9 15 -5
0 -12 11 -15 25 -4 14 -11 25 -16 25 -6 0 -10 7 -10 15 0 8 -7 15 -15 15 -8 0
-15 5 -15 11 0 11 -154 169 -165 169 -4 0 -20 14 -37 30 -16 17 -36 30 -44 30
-8 0 -14 5 -14 10 0 6 -7 10 -15 10 -9 0 -18 7 -21 15 -4 8 -17 15 -30 15 -15
0 -24 6 -24 15 0 10 -10 15 -30 15 -20 0 -30 5 -30 15 0 11 -11 15 -40 15 -29
0 -40 4 -40 15 0 11 -12 15 -44 15 -26 0 -46 5 -48 12 -3 8 -33 14 -86 16 -45
2 -82 8 -82 13 0 5 -52 9 -115 9 -70 0 -115 -4 -115 -10z"/>
<path d="M7849 4907 c-231 -66 -330 -331 -198 -531 116 -175 376 -201 524 -52
72 72 99 132 103 231 5 104 -20 174 -88 248 -86 94 -226 136 -341 104z"/>
</g>
</svg>
